<?xml version="1.0" encoding="UTF-8"?>
<svg id="Layer_1" data-name="Layer 1" xmlns="http://www.w3.org/2000/svg" viewBox="0 0 1927.09 915">
  <defs>
    <style>
      .cls-1 {
        fill: #fff;
      }

      .cls-2 {
        fill: #0c2549;
      }

      .cls-3 {
        font-family: LEMONMILK-Light, 'LEMON MILK';
        font-size: 24.22px;
        font-weight: 300;
      }

      .cls-4 {
        fill: #033482;
      }

      .cls-5 {
        letter-spacing: 0em;
      }
    </style>
  </defs>
  <text class="cls-3" transform="translate(0 85.27)"><tspan class="cls-2" x="0" y="0">S</tspan><tspan x="14.8" y="0">ite</tspan><tspan class="cls-4" x="50.02" y="0">S</tspan><tspan class="cls-5" x="64.82" y="0">cribes</tspan></text>
  <g>
    <path class="cls-2" d="m20.96,37.51h9.66v1.94c-.01,4.8,1.47,5.85,4.84,5.85,1.27,0,2.32-.35,3.15-1.05.83-.7,1.25-1.65,1.25-2.84,0-1.61-.8-2.94-2.41-4.01-1.06-.7-2.46-1.53-4.2-2.49-5.42-2.96-8.95-5.78-10.58-8.48-1.09-1.79-1.63-4.07-1.63-6.85,0-3.97,1.32-7.04,3.95-9.22,2.63-2.18,6.19-3.27,10.68-3.27s7.78,1.04,10.12,3.13c2.33,2.09,3.59,6.17,3.77,12.24h-9.49l-.04-1.28c0-3.74-1.47-5.6-4.4-5.6-2.7,0-4.05,1.22-4.05,3.66,0,1.38.53,2.53,1.6,3.46.86.75,2.09,1.58,3.7,2.49,5.99,3.35,9.82,6.15,11.48,8.41,1.37,1.87,2.06,4.35,2.06,7.43,0,4.12-1.29,7.28-3.87,9.48-2.58,2.19-6.21,3.29-10.88,3.29s-8.57-1.07-10.97-3.5c-2.47-2.5-3.62-6.59-3.73-12.76Z"/>
    <path class="cls-4" d="m37.56,30.43h7.49l2.16,1.94c0,4.8,1.48,5.85,4.85,5.85,1.27,0,2.32-.35,3.15-1.05.83-.7,1.25-1.65,1.25-2.84,0-1.61-.8-2.94-2.41-4.01-1.06-.7-2.46-1.53-4.2-2.49-5.42-2.96-8.95-5.78-10.58-8.48-1.09-1.79-1.63-4.07-1.63-6.85,0-3.97,1.32-7.04,3.95-9.22,2.63-2.18,6.19-3.27,10.68-3.27s7.78,1.04,10.12,3.13c2.33,2.09,3.59,6.17,3.77,12.24h-9.49l-.04-1.28c0-3.74-1.47-5.6-4.4-5.6-2.7,0-4.05,1.22-4.05,3.66,0,1.38.53,2.53,1.6,3.46.86.75,2.09,1.58,3.7,2.49,5.99,3.35,9.82,6.15,11.48,8.41,1.37,1.87,2.06,4.35,2.06,7.43,0,4.12-1.29,7.28-3.87,9.48-2.58,2.19-6.21,3.29-10.88,3.29s-8.57-1.07-10.97-3.5-3.62-6.59-3.73-12.76Z"/>
    <path class="cls-1" d="m48.26,36.7c-1.53-1.73-1.11-4.02-1.05-4.33l-2.16-1.94h-7.49c.1,6.17,1.4,10.58,3.89,12.91,0,0,4.09,2.98,7.73,3.17.6-1.75,1.38-4.76,1.05-8.51-.48-.17-1.29-.53-1.98-1.3Z"/>
    <path class="cls-1" d="m38.7,7.18c3.65.22,5.53,1.17,7.58,3,2.33,2.09,3.59,6.17,3.77,12.24h-10.2v-2.14c-.22-3.02-1.32-3.53-1.94-4.23-.3-.97-.49-2.8-.31-4.83.16-1.78.68-3.17,1.1-4.04Z"/>
  </g>
</svg>