<?xml version="1.0" encoding="UTF-8"?>
<svg id="Layer_1" data-name="Layer 1" xmlns="http://www.w3.org/2000/svg" viewBox="0 0 1927.09 915">
  <defs>
    <style>
      .cls-1 {
        fill: #fff;
      }

      .cls-2 {
        fill: #0c2549;
      }

      .cls-3 {
        font-family: LEMONMILK-Light, 'LEMON MILK';
        font-size: 24.22px;
        font-weight: 300;
      }

      .cls-4 {
        fill: #033482;
      }

      .cls-5 {
        letter-spacing: 0em;
      }
    </style>
  </defs>
  <text class="cls-3" transform="translate(36.27 24.38)"><tspan class="cls-2" x="0" y="0">S</tspan><tspan x="14.8" y="0">ite</tspan><tspan class="cls-4" x="50.02" y="0">S</tspan><tspan class="cls-5" x="64.82" y="0">cribes</tspan></text>
  <g>
    <path class="cls-2" d="m0,25.51h6.57v1.32c0,3.26,1,3.98,3.29,3.98.86,0,1.58-.24,2.14-.71.56-.48.85-1.12.85-1.93,0-1.09-.55-2-1.64-2.73-.72-.48-1.68-1.04-2.86-1.69-3.69-2.01-6.09-3.93-7.2-5.77C.42,16.75.05,15.2.05,13.31.05,10.61.94,8.52,2.73,7.04c1.79-1.48,4.21-2.22,7.27-2.22s5.29.71,6.88,2.13c1.59,1.42,2.44,4.19,2.57,8.32h-6.46l-.03-.87c0-2.54-1-3.81-2.99-3.81-1.84,0-2.75.83-2.75,2.49,0,.94.36,1.72,1.09,2.36.58.51,1.42,1.08,2.51,1.69,4.08,2.28,6.68,4.18,7.81,5.72.93,1.27,1.4,2.96,1.4,5.06,0,2.81-.88,4.95-2.63,6.44-1.76,1.49-4.22,2.24-7.4,2.24s-5.83-.73-7.46-2.38S.07,29.71,0,25.51Z"/>
    <path class="cls-4" d="m11.29,20.7h5.1l1.47,1.32c0,3.26,1.01,3.98,3.3,3.98.86,0,1.58-.24,2.14-.71.56-.48.85-1.12.85-1.93,0-1.09-.55-2-1.64-2.73-.72-.48-1.68-1.04-2.86-1.69-3.69-2.01-6.09-3.93-7.2-5.77-.74-1.22-1.11-2.77-1.11-4.66,0-2.7.9-4.79,2.69-6.27,1.79-1.48,4.21-2.22,7.27-2.22s5.29.71,6.88,2.13c1.59,1.42,2.44,4.19,2.57,8.32h-6.46l-.03-.87c0-2.54-1-3.81-2.99-3.81-1.84,0-2.75.83-2.75,2.49,0,.94.36,1.72,1.09,2.36.58.51,1.42,1.08,2.51,1.69,4.08,2.28,6.68,4.18,7.81,5.72.93,1.27,1.4,2.96,1.4,5.06,0,2.81-.88,4.95-2.63,6.44-1.76,1.49-4.22,2.24-7.4,2.24s-5.83-.73-7.46-2.38-2.46-4.48-2.53-8.68Z"/>
    <path class="cls-1" d="m18.57,24.96c-1.04-1.18-.75-2.73-.71-2.95l-1.47-1.32h-5.1c.07,4.2.95,7.19,2.65,8.78,0,0,2.78,2.02,5.26,2.16.41-1.19.94-3.24.71-5.79-.33-.11-.88-.36-1.35-.89Z"/>
    <path class="cls-1" d="m12.07,4.88c2.49.15,3.76.8,5.16,2.04,1.59,1.42,2.44,4.19,2.57,8.32h-6.94v-1.46c-.15-2.05-.9-2.4-1.32-2.87-.21-.66-.33-1.9-.21-3.28.11-1.21.47-2.15.75-2.75Z"/>
  </g>
</svg>